<svg width="16" height="16" viewBox="0 0 16 16" fill="none" xmlns="http://www.w3.org/2000/svg">
<path fill-rule="evenodd" clip-rule="evenodd" d="M4.79429 14.0238V15.3543C4.79429 15.7065 4.51108 16 4.16719 16H2.5084C2.14428 16 1.86107 15.7065 1.86107 15.3543V14.0238H0.748475V6.0801C0.323665 6.06053 0 5.72791 0 5.31703V4.10394C0 3.71263 0.323665 3.36044 0.748475 3.34087V2.77346C0.748475 -0.924488 14.3626 -0.924488 14.3626 2.77346V3.34087C14.7672 3.36044 15.1111 3.71263 15.1111 4.10394V5.31703C15.1111 5.72791 14.7672 6.06053 14.3626 6.0801L14.3424 14.0238H13.25V15.3543C13.25 15.7065 12.9668 16 12.6027 16H10.9642C10.6 16 10.3168 15.7065 10.3168 15.3543V14.0238H4.79429ZM4.91566 1.44298C4.71337 1.44298 4.55154 1.59951 4.55154 1.79517V2.49954C4.55154 2.6952 4.71337 2.85173 4.91566 2.85173H10.1954C10.3977 2.85173 10.5596 2.6952 10.5596 2.49954V1.79517C10.5596 1.59951 10.3977 1.44298 10.1954 1.44298H4.91566ZM2.10382 4.22134V8.50627C5.78551 9.4063 9.3256 9.4063 13.0073 8.50627V4.22134H2.10382ZM11.1058 10.9911C10.5191 10.9911 10.0741 11.4411 10.0741 11.989C10.0741 12.5173 10.5191 12.9673 11.1058 12.9673C11.6519 12.9673 12.1172 12.5173 12.1172 11.989C12.1172 11.4411 11.6519 10.9911 11.1058 10.9911ZM4.02558 10.9911C4.57177 10.9911 5.03704 11.4411 5.03704 11.989C5.03704 12.5173 4.57177 12.9673 4.02558 12.9673C3.45917 12.9673 3.01413 12.5173 3.01413 11.989C3.01413 11.4411 3.45917 10.9911 4.02558 10.9911Z" fill="#FF7121"/>
</svg>
