<svg width="17" height="14" viewBox="0 0 17 14" fill="none" xmlns="http://www.w3.org/2000/svg">
<path fill-rule="evenodd" clip-rule="evenodd" d="M15.6945 5.31942C15.2304 4.09186 14.7952 2.8643 14.3311 1.63674C13.8959 0.789144 13.2577 0.263048 12.4454 0H4.55461C3.77133 0.263048 3.1041 0.789144 2.66894 1.63674C2.23379 2.8643 1.76962 4.09186 1.30546 5.31942C0.899318 5.84551 0.464164 6.37161 0.0580209 7.16075C0.0580209 9.119 4.58211e-07 11.0772 4.58211e-07 13.0647C4.58211e-07 13.5616 0.435154 14 0.957338 14H1.59556C2.11775 14 2.52389 13.5616 2.52389 13.0647V11.8664C6.55631 12.3633 10.4727 12.3633 14.4761 11.8664V13.0647C14.4761 13.5616 14.9113 14 15.4044 14H16.0717C16.5939 14 17 13.5616 17 13.0647C17 11.0772 16.942 9.119 16.942 7.16075C16.5358 6.37161 16.1007 5.84551 15.6945 5.31942ZM12.3003 1.28601C12.8225 1.3737 13.1126 1.6952 13.3157 2.10438C13.6348 3.06889 14.041 4.17954 14.3601 5.14405C10.2696 4.61795 6.73038 4.61795 2.63993 5.14405C2.98805 4.17954 3.36519 3.06889 3.71331 2.10438C3.88737 1.6952 4.20648 1.3737 4.69966 1.28601H12.3003ZM10.5597 7.24843C10.8788 7.24843 11.1399 7.51148 11.1399 7.83299V8.06681C11.1399 8.35908 10.8788 8.62213 10.5597 8.62213H6.44027C6.15017 8.62213 5.88908 8.35908 5.88908 8.06681V7.83299C5.88908 7.51148 6.15017 7.24843 6.44027 7.24843H10.5597ZM2.98805 7.24843C3.56826 7.24843 4.03242 7.71607 4.03242 8.30063C4.03242 8.88518 3.56826 9.35282 2.98805 9.35282C2.40785 9.35282 1.9727 8.88518 1.9727 8.30063C1.9727 7.71607 2.40785 7.24843 2.98805 7.24843ZM14.0119 7.24843C13.4608 7.24843 12.9966 7.71607 12.9966 8.30063C12.9966 8.88518 13.4608 9.35282 14.0119 9.35282C14.5922 9.35282 15.0563 8.88518 15.0563 8.30063C15.0563 7.71607 14.5922 7.24843 14.0119 7.24843Z" fill="#00AC26"/>
</svg>
