<svg width="10" height="17" viewBox="0 0 10 17" fill="none" xmlns="http://www.w3.org/2000/svg">
<path d="M2.6 10.937L3.95081 12.2878L2.78344 15.4397C2.65002 15.7899 2.31649 16.0067 1.96628 16.0067C1.86622 16.0067 1.76616 15.9901 1.6661 15.9567C1.21583 15.7899 0.982353 15.2896 1.14912 14.8394L2.6 10.937Z" fill="black" fill-opacity="0.5"/>
<path d="M0.0818011 7.48476L0.882284 5.9505C1.09908 5.55026 1.41594 5.21672 1.7995 4.98325C3.65062 3.88259 3.88409 3.89926 4.11757 3.91594L5.36832 3.99932C5.75189 4.016 6.01872 4.11606 7.30282 6.00053C7.35285 6.06724 7.41956 6.11727 7.51962 6.13394L9.05388 6.36742C9.4708 6.43413 9.7543 6.81769 9.6876 7.23461C9.62089 7.65153 9.23732 7.93503 8.82041 7.86832L7.28615 7.63485C6.78584 7.55147 6.33557 7.28464 6.05207 6.86772C5.98536 6.76766 5.93533 6.68428 5.86862 6.60089L4.8847 9.71944L6.25219 11.0869C6.45231 11.2871 6.61908 11.5539 6.71914 11.8207L7.76977 14.8892C7.93654 15.3395 7.68639 15.8398 7.23612 15.9899C7.13606 16.0232 7.05267 16.0399 6.95261 16.0399C6.58572 16.0399 6.25219 15.8064 6.11878 15.4562L5.06814 12.3877C5.05147 12.3544 5.03479 12.3377 5.01811 12.3043L2.58331 9.85285C2.2331 9.50264 2.09968 9.01902 2.19975 8.55207L2.7334 6.18397C2.68337 6.21733 2.63334 6.25068 2.56663 6.28403C2.41654 6.36742 2.29981 6.50083 2.21642 6.65092L1.41594 8.18518C1.28253 8.43533 1.0157 8.58542 0.74887 8.58542C0.632133 8.58542 0.515396 8.55207 0.398659 8.50204C0.0317709 8.30192 -0.101643 7.85165 0.0818011 7.48476Z" fill="black" fill-opacity="0.5"/>
<path d="M6.67414 2.03896C6.77479 1.11421 6.10672 0.282952 5.18197 0.1823C4.25722 0.0816483 3.42597 0.749713 3.32531 1.67447C3.22466 2.59922 3.89273 3.43047 4.81748 3.53112C5.74223 3.63178 6.57348 2.96371 6.67414 2.03896Z" fill="black" fill-opacity="0.5"/>
</svg>
