<svg width="18" height="18" viewBox="0 0 18 18" fill="none" xmlns="http://www.w3.org/2000/svg">
<path d="M16.3612 11.75L10.299 1.25C9.72169 0.250001 8.27831 0.249998 7.70096 1.25L1.63878 11.75C1.06143 12.75 1.78312 14 2.93782 14H15.0622C16.2169 14 16.9386 12.75 16.3612 11.75Z" fill="#FFCE21" stroke="black"/>
<path d="M9.77417 9.52393H8.30786L8.0769 4.17969H10.0051L9.77417 9.52393ZM8.02319 11.189C8.02319 10.924 8.11808 10.7074 8.30786 10.5391C8.50122 10.3672 8.74113 10.2812 9.02759 10.2812C9.31405 10.2812 9.55216 10.3672 9.74194 10.5391C9.9353 10.7074 10.032 10.924 10.032 11.189C10.032 11.4539 9.9353 11.6724 9.74194 11.8442C9.55216 12.0125 9.31405 12.0967 9.02759 12.0967C8.74113 12.0967 8.50122 12.0125 8.30786 11.8442C8.11808 11.6724 8.02319 11.4539 8.02319 11.189Z" fill="black"/>
</svg>
